<svg width="24" height="24" viewBox="0 0 24 24" fill="none" xmlns="http://www.w3.org/2000/svg">
<path fill-rule="evenodd" clip-rule="evenodd" d="M2.96828 5.71357C2.33616 5.91258 2.34786 6.80224 2.97999 6.98953C4.81784 7.52801 6.2811 8.94445 6.8547 10.7706C7.0537 11.4027 7.94336 11.391 8.13066 10.7589C8.66914 8.92103 10.0856 7.45778 11.9117 6.88418C12.5438 6.68518 12.5321 5.79551 11.9 5.60822C10.0622 5.06974 8.5989 3.6533 8.0253 1.82716C7.91995 1.49939 7.59218 1.31209 7.26441 1.37062C7.01858 1.41745 6.81958 1.59304 6.74934 1.83886C6.21086 3.67672 4.79443 5.13998 2.96828 5.71357Z" fill="#FFAAA7"/>
<path fill-rule="evenodd" clip-rule="evenodd" d="M12.0883 11.4136C11.4562 11.6126 11.4679 12.5023 12.1 12.6896C13.9378 13.2281 15.4011 14.6445 15.9747 16.4707C16.1737 17.1028 17.0634 17.0911 17.2507 16.459C17.7891 14.6211 19.2056 13.1578 21.0317 12.5843C21.6638 12.3852 21.6521 11.4956 21.02 11.3083C19.1822 10.7698 17.7189 9.35338 17.1453 7.52723C17.0399 7.19946 16.7122 7.01217 16.3844 7.0707C16.1386 7.11752 15.9396 7.29311 15.8693 7.53894C15.3309 9.37679 13.9144 10.84 12.0883 11.4136Z" fill="#FFAAA7"/>
<path fill-rule="evenodd" clip-rule="evenodd" d="M2.96828 17.1136C2.33616 17.3126 2.34786 18.2023 2.97999 18.3896C4.81784 18.928 6.2811 20.3445 6.8547 22.1706C7.0537 22.8027 7.94336 22.791 8.13066 22.1589C8.66914 20.3211 10.0856 18.8578 11.9117 18.2842C12.5438 18.0852 12.5321 17.1955 11.9 17.0082C10.0622 16.4698 8.5989 15.0533 8.0253 13.2272C7.91995 12.8994 7.59218 12.7121 7.26441 12.7706C7.01858 12.8175 6.81958 12.9931 6.74934 13.2389C6.21086 15.0767 4.79443 16.54 2.96828 17.1136Z" fill="#FFAAA7"/>
</svg>
